<svg id="レイヤー_1" data-name="レイヤー 1" xmlns="http://www.w3.org/2000/svg" viewBox="0 0 30 30"><title>insta</title><path d="M29.91,8.82a11,11,0,0,0-.7-3.65,7.23,7.23,0,0,0-1.73-2.65A7.23,7.23,0,0,0,24.83.79a11,11,0,0,0-3.65-.7C19.58,0,19.07,0,15,0S10.42,0,8.82.09a11,11,0,0,0-3.65.7A7.23,7.23,0,0,0,2.52,2.52,7.23,7.23,0,0,0,.79,5.17a11,11,0,0,0-.7,3.65C0,10.42,0,10.93,0,15s0,4.58.09,6.18a11,11,0,0,0,.7,3.65,7.23,7.23,0,0,0,1.73,2.65,7.23,7.23,0,0,0,2.65,1.73,11,11,0,0,0,3.65.7c1.6.07,2.11.09,6.18.09s4.58,0,6.18-.09a11,11,0,0,0,3.65-.7,7.7,7.7,0,0,0,4.38-4.38,11,11,0,0,0,.7-3.65C30,19.58,30,19.07,30,15S30,10.42,29.91,8.82ZM27.23,21.07a8.24,8.24,0,0,1-.52,2.79,4.92,4.92,0,0,1-2.85,2.85,8.24,8.24,0,0,1-2.79.52c-1.58.07-2.06.09-6.07.09s-4.49,0-6.07-.09a8.24,8.24,0,0,1-2.79-.52,4.92,4.92,0,0,1-2.85-2.85,8.24,8.24,0,0,1-.52-2.79C2.7,19.49,2.68,19,2.68,15s0-4.49.09-6.07a8.24,8.24,0,0,1,.52-2.79A4.92,4.92,0,0,1,6.14,3.29a8.24,8.24,0,0,1,2.79-.52C10.51,2.7,11,2.68,15,2.68s4.49,0,6.07.09a8.24,8.24,0,0,1,2.79.52,4.92,4.92,0,0,1,2.85,2.85,8.24,8.24,0,0,1,.52,2.79c.07,1.58.09,2.06.09,6.07S27.3,19.49,27.23,21.07ZM15,7.3A7.7,7.7,0,1,0,22.7,15,7.7,7.7,0,0,0,15,7.3ZM15,20a5,5,0,1,1,5-5A5,5,0,0,1,15,20Zm8-14.8A1.8,1.8,0,1,0,24.79,7,1.79,1.79,0,0,0,23,5.21Z"/></svg>