<svg id="レイヤー_1" data-name="レイヤー 1" xmlns="http://www.w3.org/2000/svg" viewBox="0 0 406.1 137.2"><defs><style>.cls-1{fill:#587d70;}.cls-2{fill:#fff;}</style></defs><title>sharegreen</title><path class="cls-1" d="M403.5.1h-.1c-1-.1-2-.1-3.1-.1-14.7,0-26.5,5-37.9,9.9-11.1,4.7-21.5,9.2-34.6,9.2s-23.5-4.5-34.6-9.2C281.8,5,270,0,255.3,0s-26.5,5-37.9,9.9c-11.1,4.7-21.6,9.2-34.6,9.2s-23.5-4.5-34.6-9.2C136.9,5,125.1,0,110.4,0S84,5,72.5,9.9C61.5,14.6,51,19,38,19S14.5,14.5,3.4,9.8a2.18,2.18,0,0,0-2.4.8,7.66,7.66,0,0,0-1,3.8V124.3c0,2.1.9,4,2.1,4.5,9.8,4,21.4,8.4,35.9,8.4,16.2,0,28.7-5.3,40.8-10.4,10.4-4.4,20.3-8.6,31.7-8.6s21.3,4.2,31.7,8.6c12,5.1,24.5,10.4,40.7,10.4s28.7-5.3,40.8-10.4c10.4-4.4,20.3-8.6,31.7-8.6s21.3,4.2,31.7,8.6c12,5.1,24.5,10.4,40.7,10.4s28.7-5.3,40.8-10.4c10.4-4.4,20.3-8.6,31.7-8.6,1,0,2,.1,3,.1a2.07,2.07,0,0,0,2-1.3,7.12,7.12,0,0,0,.8-3.4V4.8C406.1,2.2,404.9.2,403.5.1Z"/><path class="cls-2" d="M50.8,67.2c0,3.9-2.7,11.7-13.9,11.7A24.66,24.66,0,0,1,27,77.1c-.6-.3-1.8-.8-1.4-1.7l1.7-4.6c.3-.9,1.2-.5,1.9-.2A20.32,20.32,0,0,0,36.3,72c4,0,5.9-2,5.9-4.7,0-5.9-16.9-4.6-16.9-17.7,0-4.4,2.7-11.3,12-11.3A18.87,18.87,0,0,1,46,40.4c.5.3.8.6.4,1.8L45,45.9c-.3.9-1,.6-1.5.3a11.55,11.55,0,0,0-4.9-.9c-2.9,0-4.6,1.8-4.6,4.2C33.9,55.2,50.8,54.4,50.8,67.2ZM86.9,29.8a.79.79,0,0,1,.8.8V68.5a.79.79,0,0,1-.8.8H80a.79.79,0,0,1-.8-.8V54a.79.79,0,0,0-.8-.8h-8a.79.79,0,0,0-.8.8V68.6a.79.79,0,0,1-.8.8H61.9a.79.79,0,0,1-.8-.8v-38a.79.79,0,0,1,.8-.8h6.9a.79.79,0,0,1,.8.8V45.2a.79.79,0,0,0,.8.8h8a.79.79,0,0,0,.8-.8V30.6a.79.79,0,0,1,.8-.8Zm39,30.6h-7.2a1.08,1.08,0,0,1-1-.8l-.8-3.7a1.08,1.08,0,0,0-1.1-.8h-7.9a1.21,1.21,0,0,0-1.1.8l-.8,3.7a1.08,1.08,0,0,1-1.1.8H97.8a.66.66,0,0,1-.7-.8l9.5-37.9a1,1,0,0,1,1.1-.8h8.4a1,1,0,0,1,1.1.8l9.5,37.9C126.6,60,126.3,60.4,125.9,60.4ZM114.8,47.2l-2.6-13a.4.4,0,0,0-.8,0l-2.7,13c-.1.5.2.8.7.8h4.8C114.7,48,115,47.6,114.8,47.2Zm47.4,22.2h-7.3a1.3,1.3,0,0,1-1.2-.8L149,55.8a1.3,1.3,0,0,0-1.2-.8h-2.5a.79.79,0,0,0-.8.8V68.5a.79.79,0,0,1-.8.8h-6.9a.79.79,0,0,1-.8-.8V30.6a.79.79,0,0,1,.8-.8H150c7.8,0,11,3.3,11,12.5,0,4.6-1.2,8.4-4.2,9.8-.5.3-.3.8-.1,1.2l6,15.3c.1.5-.1.8-.5.8ZM149,36.8h-3.7a.79.79,0,0,0-.8.8v9.5a.79.79,0,0,0,.8.8H149c2.7,0,3.5-1.8,3.5-4V40.7C152.4,38.6,151.7,36.8,149,36.8Zm44.9,34.6a.79.79,0,0,1,.8.8v5.3a.79.79,0,0,1-.8.8H174.4a.79.79,0,0,1-.8-.8V39.6a.79.79,0,0,1,.8-.8H193a.79.79,0,0,1,.8.8V45a.79.79,0,0,1-.8.8H182.9a.79.79,0,0,0-.8.8v7.6a.79.79,0,0,0,.8.8h6.5a.79.79,0,0,1,.8.8v5.3a.79.79,0,0,1-.8.8h-6.5a.79.79,0,0,0-.8.8v7.6a.79.79,0,0,0,.8.8h11Zm37-17.5a.86.86,0,0,0-.8-.8H227a.79.79,0,0,1-.8-.8V47a.79.79,0,0,1,.8-.8h11.7a.79.79,0,0,1,.8.8v5c0,11.2-3.2,17.9-13.5,17.9-10.5,0-13.4-7.6-13.4-19.2V48.4c0-9.6,2.9-19.2,14.6-19.2a15.64,15.64,0,0,1,8.2,2.3c1.1.7,1.5,1.1,1.1,2l-1.8,3.6a1.25,1.25,0,0,1-1.7.5,11.89,11.89,0,0,0-5.3-1.4c-5.3,0-6.5,4.5-6.5,12.2v2.3c0,7.9.7,12.2,4.8,12.2,3.7,0,4.9-2.7,4.9-9Zm45.3,6.5h-7.3a1.3,1.3,0,0,1-1.2-.8l-4.6-12.8a1.3,1.3,0,0,0-1.2-.8h-2.5a.79.79,0,0,0-.8.8V59.5a.79.79,0,0,1-.8.8h-6.9a.79.79,0,0,1-.8-.8V21.6a.79.79,0,0,1,.8-.8H264c7.8,0,11,3.3,11,12.5,0,4.6-1.2,8.4-4.2,9.8-.5.3-.3.8-.1,1.2l6,15.3C276.9,60.1,276.7,60.4,276.2,60.4ZM263,27.8h-3.7a.79.79,0,0,0-.8.8v9.5a.79.79,0,0,0,.8.8H263c2.7,0,3.5-1.8,3.5-4V31.7C266.5,29.6,265.7,27.8,263,27.8Zm44.9,34.6a.79.79,0,0,1,.8.8v5.3a.79.79,0,0,1-.8.8H288.4a.79.79,0,0,1-.8-.8V30.6a.79.79,0,0,1,.8-.8h18.7a.79.79,0,0,1,.8.8V36a.79.79,0,0,1-.8.8H297a.79.79,0,0,0-.8.8v7.6a.79.79,0,0,0,.8.8h6.5a.79.79,0,0,1,.8.8v5.3a.79.79,0,0,1-.8.8H297a.79.79,0,0,0-.8.8v7.6a.79.79,0,0,0,.8.8h10.9Zm32.5,9a.79.79,0,0,1,.8.8v5.3a.79.79,0,0,1-.8.8H320.9a.79.79,0,0,1-.8-.8V39.6a.79.79,0,0,1,.8-.8h18.7a.79.79,0,0,1,.8.8V45a.79.79,0,0,1-.8.8H329.5a.79.79,0,0,0-.8.8v7.6a.79.79,0,0,0,.8.8H336a.79.79,0,0,1,.8.8v5.3a.79.79,0,0,1-.8.8h-6.5a.79.79,0,0,0-.8.8v7.6a.79.79,0,0,0,.8.8h10.9Zm13-2a.88.88,0,0,1-.9-.8v-38a.82.82,0,0,1,.9-.8h6.8a1.27,1.27,0,0,1,1,.8l10.1,20c.4.7.9.7.9-.2V30.6a.74.74,0,0,1,.8-.8h6.8a.88.88,0,0,1,.9.8V68.5a.82.82,0,0,1-.9.8H373a1.27,1.27,0,0,1-1-.8l-10.1-20c-.4-.7-.9-.7-.9.2V68.5a.74.74,0,0,1-.8.8h-6.8Zm-234,30.7q.15.3.3,0l3-8.9a.45.45,0,0,1,.4-.3H127a.27.27,0,0,1,.3.3v12.9a.27.27,0,0,1-.3.3h-2.4a.27.27,0,0,1-.3-.3V96.3c0-.2-.2-.2-.3,0l-2.7,7.9c-.1.2-.2.3-.4.3h-2.7a.27.27,0,0,1-.3-.3l-2.7-7.9c-.1-.2-.3-.2-.3,0v7.8a.27.27,0,0,1-.3.3h-2.4a.27.27,0,0,1-.3-.3V91.3a.27.27,0,0,1,.3-.3h3.9c.2,0,.3.2.4.3l2.9,8.8Zm15.1,4.1a.27.27,0,0,1-.3.3h-2.4a.27.27,0,0,1-.3-.3V91.3a.27.27,0,0,1,.3-.3h2.4a.27.27,0,0,1,.3.3v12.9Zm17.3-12.9v12.9a.27.27,0,0,1-.3.3h-2.9a.55.55,0,0,1-.5-.3l-5.9-8.5c-.1-.2-.3-.2-.3.1v8.3a.27.27,0,0,1-.3.3h-2.4a.27.27,0,0,1-.3-.3V91.3a.27.27,0,0,1,.3-.3h2.9a.55.55,0,0,1,.5.3l5.9,8.5c.1.2.3.2.3-.1V91.4a.27.27,0,0,1,.3-.3h2.4C151.7,90.9,151.8,91.1,151.8,91.3ZM168,104.5h-2.5c-.2,0-.3-.1-.4-.3l-.5-1.4c-.1-.2-.2-.3-.4-.3h-5.3c-.2,0-.3.1-.4.3l-.5,1.4c-.1.2-.2.3-.4.3h-2.5c-.2,0-.3-.1-.2-.3l4.8-12.9a.54.54,0,0,1,.4-.3h2.8c.2,0,.3.1.4.3l4.9,12.9c.1.1,0,.3-.2.3Zm-4.5-4.8-1.8-5.1c-.1-.2-.3-.2-.3,0l-1.8,5.1c-.1.2,0,.3.2.3h3.5c.2,0,.3-.1.2-.3Zm15.4.4q.15.3.3,0l3-8.9a.45.45,0,0,1,.4-.3h3.9a.27.27,0,0,1,.3.3v12.9a.27.27,0,0,1-.3.3h-2.4a.27.27,0,0,1-.3-.3V96.3c0-.2-.2-.2-.3,0l-2.7,7.9c-.1.2-.2.3-.4.3h-2.7c-.2,0-.2-.1-.3-.3l-2.7-7.9c-.1-.2-.3-.2-.3,0v7.8a.27.27,0,0,1-.3.3h-2.4a.27.27,0,0,1-.3-.3V91.3a.27.27,0,0,1,.3-.3h3.9c.2,0,.3.2.4.3l2.9,8.8Zm15.2,4.1a.27.27,0,0,1-.3.3h-2.4a.27.27,0,0,1-.3-.3V91.3a.27.27,0,0,1,.3-.3h2.4a.27.27,0,0,1,.3.3v12.9Zm22.5.3h-2.5c-.2,0-.3-.1-.4-.3l-.5-1.4c-.1-.2-.2-.3-.4-.3h-5.3c-.2,0-.3.1-.4.3l-.5,1.4c-.1.2-.2.3-.4.3h-2.5c-.2,0-.3-.1-.2-.3l4.8-12.9a.54.54,0,0,1,.4-.3h2.8c.2,0,.3.1.4.3l4.9,12.9c.1.1,0,.3-.2.3Zm-4.5-4.8-1.8-5.1c-.1-.2-.3-.2-.3,0l-1.8,5.1c-.1.2,0,.3.2.3h3.5c.2,0,.3-.1.2-.3Zm13.1-8.9c4.5,0,6.3,3,6.3,6.9s-1.8,6.9-6.3,6.9-6.3-3-6.3-6.9S220.7,90.8,225.2,90.8ZM222,97.7c0,2.9,1.1,4.5,3.3,4.5s3.3-1.6,3.3-4.5-1.1-4.5-3.3-4.5S222,94.8,222,97.7Zm14.1-6.8c.2,0,.3.1.4.3l2.8,5.6c.1.3.3.3.4,0l2.8-5.6a.54.54,0,0,1,.4-.3h2.6c.2,0,.3.1.2.3l-4.5,8.2c-.1.1-.1.3-.1.7v4a.27.27,0,0,1-.3.3h-2.4a.27.27,0,0,1-.3-.3v-4a3.55,3.55,0,0,0-.1-.7l-4.5-8.2c-.1-.2,0-.3.2-.3Zm23,13.6h-2.5c-.2,0-.3-.1-.4-.3l-.5-1.4c-.1-.2-.2-.3-.4-.3H250c-.2,0-.3.1-.4.3l-.5,1.4c-.1.2-.2.3-.4.3h-2.5c-.2,0-.3-.1-.2-.3l4.8-12.9a.54.54,0,0,1,.4-.3H254c.2,0,.3.1.4.3l4.9,12.9C259.4,104.3,259.3,104.5,259.1,104.5Zm-4.5-4.8-1.8-5.1c-.1-.2-.3-.2-.3,0l-1.8,5.1c-.1.2,0,.3.2.3h3.5c.2,0,.3-.1.2-.3Zm15.4.4q.15.3.3,0l3-8.9a.45.45,0,0,1,.4-.3h3.9a.27.27,0,0,1,.3.3v12.9a.27.27,0,0,1-.3.3h-2.4a.27.27,0,0,1-.3-.3V96.3c0-.2-.2-.2-.3,0l-2.7,7.9c-.1.2-.2.3-.4.3h-2.7c-.2,0-.2-.1-.3-.3l-2.7-7.9c-.1-.2-.3-.2-.3,0v7.8a.27.27,0,0,1-.3.3h-2.4a.27.27,0,0,1-.3-.3V91.3a.27.27,0,0,1,.3-.3h3.9c.2,0,.3.2.4.3l2.9,8.8Zm24.1,4.4h-2.5c-.2,0-.3-.1-.4-.3l-.5-1.4c-.1-.2-.2-.3-.4-.3H285c-.2,0-.3.1-.4.3l-.5,1.4c-.1.2-.2.3-.4.3h-2.5c-.2,0-.3-.1-.2-.3l4.8-12.9a.54.54,0,0,1,.4-.3H289c.2,0,.3.1.4.3l4.9,12.9c0,.1-.1.3-.2.3Zm-4.5-4.8-1.8-5.1c-.1-.2-.3-.2-.3,0l-1.8,5.1c-.1.2,0,.3.2.3h3.5c.1,0,.2-.1.2-.3Z"/></svg>