<?xml version="1.0" encoding="utf-8"?>
<!-- Generator: Adobe Illustrator 22.1.0, SVG Export Plug-In . SVG Version: 6.00 Build 0)  -->
<svg version="1.1" id="レイヤー_1" xmlns="http://www.w3.org/2000/svg" xmlns:xlink="http://www.w3.org/1999/xlink" x="0px"
	 y="0px" viewBox="0 0 65 97.5" style="enable-background:new 0 0 65 97.5;" xml:space="preserve">
<style type="text/css">
	.st0{fill:#FFFFFF;}
</style>
<g>
	<path d="M65,32.5c0,38.6-32.5,65-32.5,65S0,71.1,0,32.5C0,14.5,14.6,0,32.5,0S65,14.5,65,32.5z"/>
	<g>
		<path class="st0" d="M49.3,31.6c-0.5-1.4-2.1-1.2-2.8,0c-0.7,1.4-1.2,2.8-1.7,4.2c-0.5,1.2-0.9,2.6-1.4,3.8
			c-0.7,2.1-1.7,4-2.6,5.9c-0.7,1.7-1.9,4.7-3.5,5.2c-2.4,0.7-5.2-1.7-6.8-2.8c-0.9-0.9-2.1-1.7-3.3-2.4c-0.5-0.2-1.4-0.5-1.7-0.9
			c0-0.2,0.2-1.7,0.2-1.9c0.2-1.2,0.5-2.6,0.7-3.8c0.2-1.9,0.2-3.8,0.9-5.7c0.2-1.4,1.9-1.7,3.3-2.6c1.4-0.7,2.6-1.7,3.8-2.8
			c2.6-2.4,4.2-5,5.7-8c0.7-1.4,0.5-2.4-0.5-3.5c-0.9-1.2-1.9-2.4-3.3-2.8c-1.4-0.5-2.8-0.7-4-0.7c-1.4,0-1.7,0.7-2.1,1.9
			c-1.2,2.4-1.7,4.7-2.4,7.1c-0.2,1.4-0.7,2.8-1.2,4.2c-0.2,0.9-0.5,3.3-1.2,4c-0.9,0.7-1.7-0.5-1.9-1.4c-0.2-1.2-0.2-2.4-0.2-3.5
			c0-0.7,0.5-1.7,0.5-2.4c0-1.2-1.9-2.6-2.8-1.2c-0.5,0.5-0.2,1.9-0.2,2.6c0,1.2,0,2.4,0,3.5c0,1.4,0,3.5,0.9,4.7
			c0.5,0.7,1.4,0.5,1.9,0.9c0.5,0.2,0-0.2,0.2,0.7c0,0.5-0.5,1.4-0.5,1.9c-0.2,0.9-0.5,1.9-0.5,2.6c-0.2,1.7-0.5,3.5-0.9,5.2
			c-1.9-0.7-5.2-0.7-5.9,1.7c-0.9,2.6-0.2,6.1,1.4,8c0.9,0.9,3.8,3.3,5.4,1.9c0.7-0.7,0.7-3.1,0.9-4c0.2-1.2,0.5-2.6,0.7-3.8
			c1.2,0.2,2.1,1.4,2.8,2.1c0.9,0.9,1.9,1.7,3.1,2.1c2.1,1.4,5,3.3,7.5,1.9c2.1-1.2,3.8-4.5,5-6.6C44.1,44.5,49.6,33,49.3,31.6z
			 M30.9,21.4c0.5-1.4,0.7-4,1.9-5.2c0-0.2,2.8,0,3.1,0.5c0.7,0.9,1.9,1.2,1.2,2.6c-0.7,1.4-1.7,2.8-2.6,4c-1.7,1.9-3.5,4.5-5.9,5.7
			C29.1,26.4,30.2,24,30.9,21.4z M21,49c-0.2,0.7-0.2,2.4-0.5,3.1c-0.7,0.9-1.7-1.7-1.7-2.1c-0.2-1.2-0.7-3.5,0.5-4.2
			c0.5-0.7,2.4-0.5,2.1,0.7C21.3,47.1,21.3,48.3,21,49z"/>
	</g>
</g>
</svg>
