<?xml version="1.0" encoding="utf-8"?>
<!-- Generator: Adobe Illustrator 22.1.0, SVG Export Plug-In . SVG Version: 6.00 Build 0)  -->
<svg version="1.1" id="レイヤー_1" xmlns="http://www.w3.org/2000/svg" xmlns:xlink="http://www.w3.org/1999/xlink" x="0px"
	 y="0px" viewBox="0 0 65 90" style="enable-background:new 0 0 65 90;" xml:space="preserve">
<style type="text/css">
	.st0{fill:#FFFFFF;}
</style>
<g>
	<path d="M64.5,33.4c0,38.6-32,55.7-32,55.7S0.5,72,0.5,33.4c0-18,14.4-32.5,32-32.5S64.5,15.4,64.5,33.4z"/>
	<g>
		<path class="st0" d="M48,32.7c-0.5-1.3-1.9-1.1-2.6,0c-0.6,1.3-1.1,2.6-1.6,3.9c-0.5,1.1-0.8,2.4-1.3,3.5
			c-0.6,1.9-1.6,3.7-2.4,5.4c-0.6,1.6-1.7,4.3-3.2,4.8c-2.2,0.6-4.8-1.6-6.3-2.6c-0.8-0.8-1.9-1.6-3-2.2c-0.5-0.2-1.3-0.5-1.6-0.8
			c0-0.2,0.2-1.6,0.2-1.7c0.2-1.1,0.5-2.4,0.6-3.5c0.2-1.7,0.2-3.5,0.8-5.2c0.2-1.3,1.7-1.6,3-2.4c1.3-0.6,2.4-1.6,3.5-2.6
			c2.4-2.2,3.9-4.6,5.2-7.4c0.6-1.3,0.5-2.2-0.5-3.2c-0.8-1.1-1.7-2.2-3-2.6c-1.3-0.5-2.6-0.6-3.7-0.6c-1.3,0-1.6,0.6-1.9,1.7
			c-1.1,2.2-1.6,4.3-2.2,6.5c-0.2,1.3-0.6,2.6-1.1,3.9c-0.2,0.8-0.5,3-1.1,3.7c-0.8,0.6-1.6-0.5-1.7-1.3c-0.2-1.1-0.2-2.2-0.2-3.2
			c0-0.6,0.5-1.6,0.5-2.2c0-1.1-1.7-2.4-2.6-1.1c-0.5,0.5-0.2,1.7-0.2,2.4c0,1.1,0,2.2,0,3.2c0,1.3,0,3.2,0.8,4.3
			c0.5,0.6,1.3,0.5,1.7,0.8c0.5,0.2,0-0.2,0.2,0.6c0,0.5-0.5,1.3-0.5,1.7c-0.2,0.8-0.5,1.7-0.5,2.4c-0.2,1.6-0.5,3.2-0.8,4.8
			c-1.7-0.6-4.8-0.6-5.4,1.6c-0.8,2.4-0.2,5.6,1.3,7.4c0.8,0.8,3.5,3,5,1.7c0.6-0.6,0.6-2.9,0.8-3.7c0.2-1.1,0.5-2.4,0.6-3.5
			c1.1,0.2,1.9,1.3,2.6,1.9c0.8,0.8,1.7,1.6,2.9,1.9c1.9,1.3,4.6,3,6.9,1.7c1.9-1.1,3.5-4.1,4.6-6.1C43.2,44.6,48.3,34,48,32.7z
			 M31.1,23.3c0.5-1.3,0.6-3.7,1.7-4.8c0-0.2,2.6,0,2.9,0.5c0.6,0.8,1.7,1.1,1.1,2.4c-0.6,1.3-1.6,2.6-2.4,3.7
			c-1.6,1.7-3.2,4.1-5.4,5.2C29.4,27.9,30.4,25.7,31.1,23.3z M22,48.7c-0.2,0.6-0.2,2.2-0.5,2.9c-0.6,0.8-1.6-1.6-1.6-1.9
			c-0.2-1.1-0.6-3.2,0.5-3.9c0.5-0.6,2.2-0.5,1.9,0.6C22.2,47,22.2,48.1,22,48.7z"/>
	</g>
</g>
</svg>
