<?xml version="1.0" encoding="utf-8"?>
<!-- Generator: Adobe Illustrator 22.1.0, SVG Export Plug-In . SVG Version: 6.00 Build 0)  -->
<svg version="1.1" id="レイヤー_1" xmlns="http://www.w3.org/2000/svg" xmlns:xlink="http://www.w3.org/1999/xlink" x="0px"
	 y="0px" viewBox="0 0 100 137.2" style="enable-background:new 0 0 100 137.2;" xml:space="preserve">
<g>
	<path d="M23.4,79.9c-0.8,1.2-2-0.1-2-1.1c0.1-1.3,1.4-1.8,2.1-0.6l0.6-0.3c-0.4-0.8-1.4-1.2-2.2-0.9c-0.9,0.3-1.2,1.3-1.2,2.2
		c0.2,2,2.6,2.6,3.5,0.8l-0.6-0.3C23.5,79.7,23.4,79.8,23.4,79.9z"/>
	<path d="M28.2,77.5c-0.7-0.8-1.9-0.9-2.8-0.2l-0.1,0.1c-0.7,0.7-0.7,2.1-0.1,2.9s2,1,2.7,0.3C28.8,79.9,28.9,78.3,28.2,77.5z
		 M27.9,79.6c-0.2,0.6-0.8,1-1.4,0.8c-0.1,0-0.3-0.1-0.4-0.2c-0.5-0.4-0.6-1.2-0.4-1.9c0.2-0.7,1-1.2,1.7-0.7
		C28,78,28.1,78.9,27.9,79.6z"/>
	<path d="M29.6,80.9h0.7V79H32v-0.6h-1.7v-0.9h1.8v-0.6h-2.5C29.6,76.9,29.6,80.9,29.6,80.9z"/>
	<path d="M32.9,80.9h0.7V79h1.7v-0.6h-1.7v-0.9h1.8v-0.6h-2.5V80.9z"/>
	<path d="M36.9,78.9h1.8v-0.6h-1.8v-0.9h1.9v-0.6h-2.7v4h2.7v-0.6h-2L36.9,78.9L36.9,78.9z"/>
	<path d="M40.5,78.9h1.8v-0.6h-1.8v-0.9h1.9v-0.6h-2.7v4h2.7v-0.6h-2L40.5,78.9L40.5,78.9z"/>
	<path d="M47.6,79.1c0.5-0.2,0.7-0.9,0.5-1.4c-0.2-0.6-0.7-0.7-1.2-0.8c-0.6,0-1.2,0-1.8,0v4h0.7v-1.7h0.7l1,1.7h0.9l-1-1.7
		C47.4,79.2,47.5,79.2,47.6,79.1z M46.7,78.6h-1v-1.1c0.4,0,0.9-0.1,1.2,0C47.8,77.8,47.5,78.6,46.7,78.6z"/>
	<path d="M52.3,77.5c-0.7-0.8-1.9-0.9-2.8-0.2l-0.1,0.1c-0.7,0.7-0.7,2.1-0.1,2.9s2,1,2.7,0.3C52.9,79.9,53,78.3,52.3,77.5z
		 M52,79.6c-0.2,0.6-0.8,1-1.4,0.8c-0.1,0-0.3-0.1-0.4-0.2c-0.5-0.4-0.6-1.2-0.4-1.9c0.2-0.7,1-1.2,1.7-0.7
		C52.1,78,52.2,78.9,52,79.6z"/>
	<path d="M54.6,76.9l-1.5,4h0.7l0.3-0.8h1.7l0.3,0.8h0.7l-1.5-4H54.6z M54.3,79.6c0.2-0.6,0.4-1.3,0.7-1.9c0.2,0.6,0.4,1.3,0.7,1.9
		H54.3z"/>
	<path d="M59.8,78.7c-0.4-0.2-1.6-0.3-1.6-0.8c-0.1-1,1.4-0.2,1.7,0.1l0.5-0.4c-0.5-0.7-1.6-1.1-2.4-0.6c-0.8,0.5-0.6,1.5,0.1,1.9
		c0.4,0.2,2.1,0.4,1.6,1.2c-0.5,0.7-1.6,0-1.9-0.5L57.2,80c0.4,0.9,1.6,1.2,2.5,0.9c0.6-0.2,1-0.8,0.8-1.5
		C60.3,79.1,60.1,78.9,59.8,78.7z"/>
	<path d="M61.1,77.5h1.1v3.4H63v-3.4h1.1v-0.6h-3V77.5z"/>
	<path d="M65.5,78.9h1.8v-0.6h-1.8v-0.9h1.9v-0.6h-2.6v4h2.7v-0.6h-2V78.9z"/>
	<path d="M70.9,79.1c0.5-0.2,0.7-0.9,0.5-1.4c-0.2-0.6-0.7-0.7-1.2-0.8c-0.6,0-1.2,0-1.8,0v4h0.7v-1.7h0.7l1,1.7h0.9l-1-1.7
		C70.7,79.2,70.8,79.2,70.9,79.1z M70.1,78.6h-1v-1.1c0.4,0,0.9-0.1,1.2,0C71.1,77.8,70.8,78.6,70.1,78.6z"/>
	<path d="M74.7,78.7c-0.4-0.2-1.6-0.3-1.6-0.8c-0.1-1,1.4-0.2,1.7,0.1l0.5-0.4c-0.5-0.7-1.6-1.1-2.4-0.6s-0.6,1.5,0.1,1.9
		c0.4,0.2,2.1,0.4,1.6,1.2c-0.5,0.7-1.6,0-1.9-0.5L72.1,80c0.4,0.9,1.6,1.2,2.5,0.9c0.6-0.2,1-0.8,0.8-1.5
		C75.2,79.2,75,78.9,74.7,78.7z"/>
	<path d="M37.6,70c0.4-0.2-0.1-1-0.4-1.1c-0.4-0.1-1,0.5-1.3,0.7c-0.4,0.3-0.9,0.7-1.3,0.4c-0.3-0.3-0.8-1.3-0.7-1.7
		c0.1-0.6,0.7-1.2,0.9-1.7c0.2-0.4,0.4-0.9,0.4-1.4c0.1-1-0.5-2.2-1.6-1.8c-0.5,0.2-1.1,0.6-1.5,0.9c-0.5,0.4-0.7,0.7-0.6,1.4
		c0.1,0.5,0.3,1,0.5,1.4c0.1,0.2,0.4,0.5,0.4,0.8c0,0.4-0.2,0.6-0.4,0.9c-0.2,0.2-0.8,1.5-1.1,1.5c-0.2,0-0.6-1.2-0.6-1.5
		c-0.2-0.6-0.3-1.3-0.4-1.9c-0.1-0.5-0.3-0.9-0.1-1.4c0.5-1.1,1.3-2,1.8-3.1c0.4-0.9,1.4-2.2,1-3.2c-0.4-1.1-1.5-1.8-2.4-2.4
		c-0.4-0.3-1-0.6-1.5-0.5S28,57,27.9,57.4c-0.3,1.3-0.4,2.6-0.3,3.8c0.1,0.7,0.2,1.4,0.4,2.2c0.1,0.6,0.4,1.4,0.4,2
		c0,0.5-0.5,1.1-0.7,1.6c-0.3,0.6-0.6,1.1-0.8,1.7c-0.2,0.3-0.3,0.7-0.5,1c-0.1,0.2-0.6,1.4-0.8,1.4c-0.2,0-0.7-3-0.8-3.4
		c-0.1-0.8-0.2-1.6-0.2-2.4c0-0.3-0.1-1,0-1.2s0.1-0.1,0.4-0.2c0.7-0.1,1.3,0.1,1.9,0.3c0.5,0.2,0.9,0.3,0.9-0.4s-0.5-0.8-1.1-0.9
		c-0.4-0.1-1.6-0.4-1.9-0.2c-0.1-0.4,0.1-1,0.1-1.4s0-0.9-0.2-1.3c-0.1-0.4-0.4-0.6-0.8-0.4c-0.4,0.2-0.4,0.7-0.5,1.1
		c-0.1,0.3-0.1,0.7-0.2,1c0,0.3,0,0.8-0.2,1c-0.2,0.3-1.1,0.2-1.5,0.2c-0.5,0-1.1,0-1.5,0.1c-0.1-0.6,0.6-2.4-0.6-2.4
		c-0.8,0-0.8,1.8-1,2.4c-0.4,0-2-0.7-2.4,0.1c-0.5,1.2,2.2,1.2,2.2,1.3c0,0.2-0.2,0.8-0.2,1.1c-0.1,0.3-0.2,0.7-0.3,1
		c-0.3,0.8-0.5,1.6-0.8,2.4c-0.2,0.6-0.6,1.2-0.9,1.8c-0.1,0.2-0.1,0.5-0.4,0.4c-0.2-0.1-0.5-0.8-0.5-0.9c-0.2-0.4-0.2-1-0.2-1.5
		c-0.1-0.8-0.1-1.5-0.1-2.3c0-0.6,0.2-1.4,0.1-2c-0.2-0.6-0.9-0.5-1.2,0c-0.3,0.6-0.5,1.2-0.7,1.8c-0.2,0.5-0.4,1.1-0.6,1.6
		c-0.3,0.9-0.7,1.7-1.1,2.5c-0.3,0.7-0.8,2-1.5,2.2c-1,0.3-2.2-0.7-2.9-1.2c-0.4-0.4-0.9-0.7-1.4-1c-0.2-0.1-0.6-0.2-0.7-0.4
		c0-0.1,0.1-0.7,0.1-0.8C5,68.6,5.1,68,5.2,67.5c0.1-0.8,0.1-1.6,0.4-2.4C5.7,64.5,6.4,64.4,7,64c0.6-0.3,1.1-0.7,1.6-1.2
		c1.1-1,1.8-2.1,2.4-3.4c0.3-0.6,0.2-1-0.2-1.5s-0.8-1-1.4-1.2c-0.6-0.2-1.2-0.3-1.7-0.3c-0.6,0-0.7,0.3-0.9,0.8c-0.5,1-0.7,2-1,3
		c-0.1,0.6-0.3,1.2-0.5,1.8c-0.1,0.4-0.2,1.4-0.5,1.7C4.4,64,4.1,63.5,4,63.1c-0.1-0.5-0.1-1-0.1-1.5c0-0.3,0.2-0.7,0.2-1
		c0-0.5-0.8-1.1-1.2-0.5c-0.2,0.2-0.1,0.8-0.1,1.1c0,0.5,0,1,0,1.5c0,0.6,0,1.5,0.4,2C3.4,65,3.8,64.9,4,65.1c0.2,0.1,0-0.1,0.1,0.3
		c0,0.2-0.2,0.6-0.2,0.8c-0.1,0.4-0.2,0.8-0.2,1.1c-0.1,0.7-0.2,1.5-0.4,2.2c-0.8-0.3-2.2-0.3-2.5,0.7c-0.4,1.1-0.1,2.6,0.6,3.4
		C1.8,74,3,75,3.7,74.4C4,74.1,4,73.1,4.1,72.7c0.1-0.5,0.2-1.1,0.3-1.6c0.5,0.1,0.9,0.6,1.2,0.9c0.4,0.4,0.8,0.7,1.3,0.9
		c0.9,0.6,2.1,1.4,3.2,0.8c0.9-0.5,1.6-1.9,2.1-2.8c0.5-1,0.9-2.1,1.3-3.2c0.1,0.8,0.1,1.8,0.4,2.6c0.3,0.7,1.2,2.5,2,2.5
		c0.5,0,0.8-0.6,0.9-1.1c0.3-0.6,0.5-1.1,0.8-1.7c0.4-1.2,1-2.4,1.4-3.7c0.1,1.1,0.3,6.7,2.5,5.7c1.1-0.5,1.1-2,1.4-3
		c0.3-0.9,0.2-1.9,0.5-2.8c0.2,1.3,0.5,2.6,0.7,3.9c0.1,0.8,0.1,1.7,1,2.1c1.1,0.5,1.7-0.5,2.1-1.3c0.5-1.2,1-2.4,1.6-3.5
		c0.2,0.8,0.4,1.6,0.7,2.4c0.2,0.7,0.3,1.5,0.9,1.9c1.2,0.7,2-1.6,2.6-2.3c0.4,0.6,0.8,1.8,1.6,1.9C35.7,71.5,36.7,70.3,37.6,70z
		 M33.3,66.9L33.3,66.9c-0.2-0.3-0.5-0.9-0.5-1.3s0.7-1.1,1.2-1.1c0.4,0,0.2,0.3,0.1,0.7C34,65.9,33.7,66.4,33.3,66.9z M30.2,62.5
		c-0.3,0.5-0.6,1-0.9,1.5c-0.3-1.2-0.5-2.4-0.5-3.7c0-0.6,0.1-1.3,0.2-1.9c0-0.2,0.1-0.8,0.2-1c0.4-0.3,2.2,1.2,2.3,1.7
		c0.2,0.5-0.3,1.2-0.5,1.6C30.8,61.3,30.5,61.9,30.2,62.5z M20.2,65.2c0-0.2,0-0.4,0-0.6c0.9,0.1,1.7-0.1,2.6-0.3
		c-0.3,1.3-0.6,2.6-0.8,3.8c-0.1,0.3-0.4,2.8-0.7,2.8c-0.5,0.1-0.8-2.2-0.8-2.5C20.2,67.3,20.3,66.2,20.2,65.2z M9.2,58.1
		c0.3,0.4,0.8,0.5,0.5,1.1S9,60.4,8.6,60.9c-0.7,0.8-1.5,1.9-2.5,2.4c0.2-1.1,0.7-2.1,1-3.2c0.2-0.6,0.3-1.7,0.8-2.2
		C7.9,57.8,9.1,57.9,9.2,58.1z M3.1,70.7C3,71,3,71.5,2.9,71.8s-0.1,1-0.2,1.3C2.4,73.5,2,72.4,2,72.2c-0.1-0.5-0.3-1.5,0.2-1.8
		C2.4,70.1,3.2,70.2,3.1,70.7z"/>
	<path d="M99,68.9c-0.4-0.3-0.9-0.1-1.3,0c-0.7,0.2-1.4,0.4-2.1,0.7c-0.4,0.2-4.4,2.2-4.2,2.5c-0.1-0.1-0.2-0.6-0.2-0.8
		c-0.1-0.5-0.2-1-0.3-1.5c-0.1-0.6-0.2-1.1-0.1-1.7c0-0.5,0.1-1.1-0.2-1.5c-0.5-0.5-0.9,0.2-1,0.6c-0.3,1.2-0.7,2.3-1.2,3.4
		c-0.2,0.5-0.3,0.9-0.9,0.7c-0.4-0.1-0.8-0.4-0.8-0.9c0.1-0.9,1-2.1,1.6-2.7c0.4-0.4,0.8-0.7,1.2-1c0.3-0.2,0.9-0.5,1.1-0.8
		c0.1-0.3,0-0.8-0.3-0.9s-0.9,0.1-1.1,0.2c-1,0.6-1.8,1.4-2.5,2.3c-0.4,0.5-0.8,1-1.3,1.4c-0.4,0.4-0.6,0.8-1.1,1
		c-0.2-0.1-0.3-0.9-0.4-1.2c-0.1-0.6-0.1-1.1-0.3-1.7c-0.3-0.8-0.4-2.5-1.5-2.4c-1,0.1-1.4,1.9-1.7,2.7c-0.2,0.6-0.4,1.2-0.6,1.8
		c-0.1,0.4-0.3,0.9-0.5,1.2c-0.5-0.5-0.5-1.4-0.9-2c-0.2-0.4-0.5-0.8-0.7-1.2c-0.2-0.3-0.3-0.7-0.6-0.9c-1.2-0.9-2.2,2.7-2.8,3.3
		c-0.2-0.3-0.2-0.7-0.2-1c-0.1-0.4-0.2-0.8-0.4-1.2c-0.3-0.6-0.8-1.3-1.5-0.9c-0.7,0.3-1,1.4-1.4,2.1s-1,1.6-1.7,2.1
		c-0.9,0.7-1.1,0-1.4-0.9c-0.3-1.1-0.2-1.6,0.4-2.6c0.9-1.4,1.6-2.7,2.6-4.1c0.8-1.1,2.4-3,0.9-4.1c-0.7-0.5-1.6-0.9-2.3-1.3
		c-0.6-0.3-1.6-1.1-2.3-0.9c-0.7,0.2-0.8,1.5-0.8,2.1c-0.1,0.9-0.3,1.8-0.3,2.7c-0.1,1.8-0.2,3.5,0.2,5.2c0.1,0.4,0.3,0.8,0.2,1.2
		c-0.1,0.4-0.5,0.8-0.7,1.2c-0.2,0.3-1.2,2-1.4,0.9c-0.1-0.6,0.7-4.5-0.3-4.6l0,0c-0.4-0.5-1.4-0.3-1.9-0.1c-0.8,0.3-0.9,1-1,1.8
		c-0.2,0.9-0.4,1.7-0.8,2.5c-0.3,0.6-0.6,1.6-1.2,1.9c-0.3-0.2-0.6-0.5-1-0.8c-0.4-0.4-0.5-0.9-0.7-1.4c-0.1-0.4-0.2-0.8-0.3-1.2
		c-0.1-0.4,0-0.9-0.2-1.3c-0.3-0.6-1.3-0.9-1.4,0c-0.1,0.9,0.4,1.9,0.5,2.8c0,0.3,0,0.8-0.3,1s-0.7,0.2-0.8-0.2
		c-0.2-0.9,0-2.3,0.3-3.2c0.2-0.5,0.7-1.8-0.4-1.6c-0.5,0.1-0.5,0.6-0.7,0.9c-0.2,0.6-0.4,1.1-0.4,1.8c-0.1,0.9-0.5,2.9,0.4,3.4
		s2-0.1,2.8-0.4c0.3,0.1,0.6,0.6,0.8,0.8c0.4,0.3,0.8,0.6,1.3,0.8c1.1,0.5,1.4-0.8,1.8-1.6c0.5-1,0.9-2,1.2-3.1
		c0.1-0.4,0.2-2,0.9-1.8c0,0.8,0,1.7-0.1,2.5c0,0.7-0.2,1.6,0.3,2.2c0.5,0.7,1.6,0.9,2.3,0.4c0.6-0.5,0.9-1,1.4-1.6
		c0.3,0.7,0.5,1.5,1.2,2c0.7,0.4,1.4,0.3,2-0.2s1.2-1.1,1.6-1.7c0.1-0.2,1.5-1.9,1.3-2c0.2,0.1,0.2,0.7,0.3,0.9
		c0.1,0.4,0.2,0.8,0.3,1.2c0.1,0.6,0.5,1.8,1.3,1.6c0.5-0.1,0.9-1.2,1.2-1.6c0.2-0.4,0.3-0.7,0.5-1.1c0.1-0.1,0.5-1,0.6-1
		c0.4,0,0.7,1.3,0.7,1.6c0.2,0.6,0.5,1.1,0.7,1.7c0.1,0.5,0.1,1,0.6,1.3c0.3,0.2,0.6,0.3,0.9,0c0.4-0.4,0.6-1.2,0.9-1.7
		c0.2-0.4,0.3-0.8,0.5-1.2c0.1-0.4,0.3-0.7,0.4-1.1c0.1-0.3,0.5-1.7,0.7-1.7c0.3,0.3,0.4,1.1,0.4,1.5c0,0.8,0.3,1.5,0.5,2.2
		c0.2,0.5,0.5,1.3,1.1,1.4c0.5,0.1,0.7-0.5,1-0.7c0.6,0.9,1.6,1.4,2.5,1.7c0.3,0.1,0.6,0.3,0.9,0.2c0.2-0.1,0.3-0.3,0.4-0.5
		c0.3-0.5,0.5-1.2,0.9-1.7c0.1,0.6,0.4,1.2,0.4,1.8c0.1,0.5-0.1,0.9-0.4,1.3C89.4,75,88.9,76,88.3,77c-0.4,0.6-0.8,1-0.6,1.7
		c0.1,0.5,0.2,0.8,0.8,1c0.6,0.2,0.9-0.5,1.3-0.9c0.5-0.6,1.1-1.1,1.5-1.7c0.6-0.8,0.1-2.1,0.8-2.9c0.8-0.9,1.8-1.6,2.9-2.1
		s1.9-1.1,3.1-1.3c0.4,0,0.7-0.1,1.1-0.2C99.4,69.7,99.5,69.2,99,68.9z M69,62.3c-0.9,1.1-1.5,2.4-2.2,3.6c-0.3-1.3-0.2-2.5-0.1-3.8
		s0.1-3,0.6-4.3c0.2-0.5,0.4-0.3,0.8-0.1c0.7,0.3,1.4,0.7,2,1.2c0.6,0.4,0.6,0.5,0.3,1.2C70,60.9,69.6,61.6,69,62.3z M89.9,75.4
		c-0.1,0.4-0.4,1-0.7,1.1C89.4,76.1,89.6,75.7,89.9,75.4L89.9,75.4z"/>
	<path d="M72.9,64.8c0.4,0,0.6,0.2,0.8-0.2c0.2-0.3,0.1-0.8,0.2-1.2c0.1-0.3,0.3-0.5,0.3-0.8c0-0.2-0.1-0.3-0.2-0.4
		c-0.1,0-0.1-0.1-0.2-0.1c-0.3-0.3-0.5,0.1-0.7,0C72.5,62.4,72,64.6,72.9,64.8z"/>
	<path d="M14,62.7c0.3,0.3,0.9,0.2,1-0.1c0.1-0.2-0.1-0.7,0-1c0-0.2,0.1-0.6,0-0.9c-0.1-0.2-0.5-0.6-0.7-0.3
		C13.7,60.5,13.7,62.4,14,62.7z"/>
	<path d="M52.8,68.6c-0.2-0.1-1-0.4-1.3-0.4c0-0.2,0.2-0.4,0.3-0.6c0.1-0.3,0.2-0.6,0.3-0.9c0.1-0.5,0.1-1,0.1-1.5
		c0-0.9,0.2-1.7,0.2-2.6c0-1.9-1.9-3.2-3.3-4.1c-0.7-0.5-1.4-1-2.2-1.4c-0.6-0.3-1.7-1-2.4-0.8c-0.9,0.3-0.9,1.5-1.1,2.2
		c-0.3,1-0.6,2.1-0.8,3.1c0.2-1.3,0.5-2.6,0.3-3.9c0-0.5-0.2-0.8-0.7-0.7c-0.7,0.2-0.7,0.9-0.7,1.4c0,2.7-0.7,5.3-0.9,8
		c-0.1,1.3-0.1,2.7,0,4c0,0.5-0.1,1.1,0,1.5c0.2,0.5,0.9,0.4,1.2,0.1s0.2-0.8,0.2-1.2c0-0.6,0-1.2,0.1-1.9c0.2-1.4,0.7-2.8,1.1-4.2
		c0.4-1.3,0.6-2.7,1-4.1c0.2-0.7,0.4-1.5,0.6-2.2c0.1-0.5,0.1-0.9,0.6-0.8c1.2,0.3,2.5,1.3,3.5,2.1c0.9,0.7,2.1,1.5,2.3,2.7
		c0.2,1.1,0,2.5-0.2,3.5c-0.1,0.4-0.1,1.1-0.5,1.4c-0.4,0.4-1-0.1-1.4-0.2c-0.6-0.1-1.2-0.1-1.8-0.2c-0.7-0.1-1.2,0-1.7,0.6
		c-0.7,0.9-1.4,1.9-1.9,2.9c-0.2,0.5-0.8,1.3-0.7,1.8c0.1,0.6,0.8,0.7,1.3,0.7c1.3,0.1,2.5-0.5,3.5-1.4c0.6-0.5,1.1-1.1,1.7-1.6
		c0.2-0.2,0.6-0.7,0.9-0.8c0.2-0.1,0.3,0,0.5,0.1c0.4,0.2,0.8,0.5,1.3,0.4C52.6,69.8,53.4,68.9,52.8,68.6z M46.5,68.4
		c0.9,0.1,1.9,0.1,2.7,0.5c-1.3,1.3-2.7,3.3-4.8,2.9c0.2-0.5,0.5-1.1,0.8-1.6C45.3,70,46.1,68.4,46.5,68.4z"/>
</g>
</svg>
