<?xml version="1.0" encoding="utf-8"?>
<!-- Generator: Adobe Illustrator 22.1.0, SVG Export Plug-In . SVG Version: 6.00 Build 0)  -->
<svg version="1.1" id="レイヤー_1" xmlns="http://www.w3.org/2000/svg" xmlns:xlink="http://www.w3.org/1999/xlink" x="0px"
	 y="0px" viewBox="0 0 100 137.2" style="enable-background:new 0 0 100 137.2;" xml:space="preserve">
<style type="text/css">
	.st0{fill:#587D70;}
	.st1{fill:#FFFFFF;}
</style>
<g>
	<path class="st0" d="M99.4,51.7L99.4,51.7c-0.3,0-0.5,0-0.8,0c-3.6,0-6.5,1.2-9.3,2.4c-2.7,1.2-5.3,2.3-8.5,2.3
		c-3.2,0-5.8-1.1-8.5-2.3c-2.8-1.2-5.7-2.4-9.3-2.4s-6.5,1.2-9.3,2.4c-2.7,1.2-5.3,2.3-8.5,2.3c-3.2,0-5.8-1.1-8.5-2.3
		c-2.8-1.2-5.7-2.4-9.3-2.4c-3.6,0-6.5,1.2-9.3,2.4c-2.7,1.2-5.3,2.2-8.5,2.2s-5.8-1.1-8.5-2.3c-0.2-0.1-0.4,0-0.6,0.2
		C0.1,54.6,0,54.9,0,55.3v27.1c0,0.5,0.2,1,0.5,1.1c2.4,1,5.3,2.1,8.8,2.1c4,0,7.1-1.3,10-2.6c2.6-1.1,5-2.1,7.8-2.1
		c2.8,0,5.2,1,7.8,2.1c3,1.3,6,2.6,10,2.6s7.1-1.3,10-2.6c2.6-1.1,5-2.1,7.8-2.1c2.8,0,5.2,1,7.8,2.1c3,1.3,6,2.6,10,2.6
		c4,0,7.1-1.3,10-2.6c2.6-1.1,5-2.1,7.8-2.1c0.2,0,0.5,0,0.7,0c0.2,0,0.4-0.1,0.5-0.3c0.1-0.2,0.2-0.5,0.2-0.8V52.9
		C100,52.2,99.7,51.8,99.4,51.7z"/>
	<g>
		<path class="st1" d="M12.5,68.3c0,1-0.7,2.9-3.4,2.9c-1,0-1.8-0.2-2.4-0.4c-0.1-0.1-0.4-0.2-0.3-0.4l0.4-1.1
			c0.1-0.2,0.3-0.1,0.5,0c0.4,0.2,1.1,0.3,1.7,0.3c1,0,1.5-0.5,1.5-1.2c0-1.5-4.2-1.1-4.2-4.4c0-1.1,0.7-2.8,3-2.8
			c0.9,0,1.6,0.2,2.1,0.5c0.1,0.1,0.2,0.1,0.1,0.4L11.1,63c-0.1,0.2-0.2,0.1-0.4,0.1c-0.4-0.2-0.8-0.2-1.2-0.2c-0.7,0-1.1,0.4-1.1,1
			C8.3,65.3,12.5,65.1,12.5,68.3z"/>
		<path class="st1" d="M21.4,59c0.1,0,0.2,0.1,0.2,0.2v9.3c0,0.1-0.1,0.2-0.2,0.2h-1.7c-0.1,0-0.2-0.1-0.2-0.2V65
			c0-0.1-0.1-0.2-0.2-0.2h-2c-0.1,0-0.2,0.1-0.2,0.2v3.6c0,0.1-0.1,0.2-0.2,0.2h-1.7c-0.1,0-0.2-0.1-0.2-0.2v-9.4
			c0-0.1,0.1-0.2,0.2-0.2h1.7c0.1,0,0.2,0.1,0.2,0.2v3.6c0,0.1,0.1,0.2,0.2,0.2h2c0.1,0,0.2-0.1,0.2-0.2v-3.6c0-0.1,0.1-0.2,0.2-0.2
			C19.7,59,21.4,59,21.4,59z"/>
		<path class="st1" d="M31,66.6h-1.8c-0.1,0-0.2-0.1-0.2-0.2l-0.2-0.9c0-0.1-0.1-0.2-0.3-0.2h-1.9c-0.1,0-0.2,0.1-0.3,0.2l-0.2,0.9
			c0,0.1-0.1,0.2-0.3,0.2h-1.7c-0.1,0-0.2-0.1-0.2-0.2l2.3-9.3c0-0.1,0.1-0.2,0.3-0.2h2.1c0.2,0,0.2,0.1,0.3,0.2l2.3,9.3
			C31.2,66.5,31.1,66.6,31,66.6z M28.3,63.3l-0.6-3.2c0-0.1-0.2-0.1-0.2,0l-0.7,3.2c0,0.1,0,0.2,0.2,0.2h1.2
			C28.2,63.5,28.3,63.4,28.3,63.3z"/>
		<path class="st1" d="M39.9,68.8h-1.8c-0.1,0-0.2-0.1-0.3-0.2l-1.2-3.2c0-0.1-0.2-0.2-0.3-0.2h-0.6c-0.1,0-0.2,0.1-0.2,0.2v3.1
			c0,0.1-0.1,0.2-0.2,0.2h-1.7c-0.1,0-0.2-0.1-0.2-0.2v-9.3c0-0.1,0.1-0.2,0.2-0.2h3.3c1.9,0,2.7,0.8,2.7,3.1c0,1.1-0.3,2.1-1,2.4
			c-0.1,0.1-0.1,0.2,0,0.3l1.5,3.8C40.1,68.7,40,68.8,39.9,68.8z M36.7,60.8h-0.9c-0.1,0-0.2,0.1-0.2,0.2v2.3c0,0.1,0.1,0.2,0.2,0.2
			h0.9c0.7,0,0.9-0.4,0.9-1v-0.8C37.5,61.2,37.4,60.8,36.7,60.8z"/>
		<path class="st1" d="M47.7,69.3c0.1,0,0.2,0.1,0.2,0.2v1.3c0,0.1-0.1,0.2-0.2,0.2h-4.8c-0.1,0-0.2-0.1-0.2-0.2v-9.3
			c0-0.1,0.1-0.2,0.2-0.2h4.6c0.1,0,0.2,0.1,0.2,0.2v1.3c0,0.1-0.1,0.2-0.2,0.2H45c-0.1,0-0.2,0.1-0.2,0.2v1.9
			c0,0.1,0.1,0.2,0.2,0.2h1.6c0.1,0,0.2,0.1,0.2,0.2v1.3c0,0.1-0.1,0.2-0.2,0.2H45c-0.1,0-0.2,0.1-0.2,0.2V69c0,0.1,0.1,0.2,0.2,0.2
			L47.7,69.3L47.7,69.3z"/>
		<path class="st1" d="M56.9,65c0-0.1-0.1-0.2-0.2-0.2h-0.8c-0.1,0-0.2-0.1-0.2-0.2v-1.3c0-0.1,0.1-0.2,0.2-0.2h2.9
			c0.1,0,0.2,0.1,0.2,0.2v1.2c0,2.8-0.8,4.4-3.3,4.4c-2.6,0-3.3-1.9-3.3-4.7v-0.6c0-2.4,0.7-4.7,3.6-4.7c0.8,0,1.6,0.3,2,0.6
			c0.3,0.2,0.4,0.3,0.3,0.5l-0.4,0.9C57.7,61,57.5,61,57.4,61c-0.7-0.3-1.2-0.3-1.3-0.3c-1.3,0-1.6,1.1-1.6,3v0.6c0,1.9,0.2,3,1.2,3
			C56.6,67.2,56.9,66.5,56.9,65z"/>
		<path class="st1" d="M68,66.6h-1.8c-0.1,0-0.2-0.1-0.3-0.2l-1.1-3.2c0-0.1-0.2-0.2-0.3-0.2h-0.6c-0.1,0-0.2,0.1-0.2,0.2v3.1
			c0,0.1-0.1,0.2-0.2,0.2h-1.7c-0.1,0-0.2-0.1-0.2-0.2V57c0-0.1,0.1-0.2,0.2-0.2H65c1.9,0,2.7,0.8,2.7,3.1c0,1.1-0.3,2.1-1,2.4
			c-0.1,0.1-0.1,0.2,0,0.3l1.5,3.8C68.2,66.5,68.1,66.6,68,66.6z M64.8,58.6h-0.9c-0.1,0-0.2,0.1-0.2,0.2v2.3c0,0.1,0.1,0.2,0.2,0.2
			h0.9c0.7,0,0.9-0.4,0.9-1v-0.8C65.6,59,65.4,58.6,64.8,58.6z"/>
		<path class="st1" d="M75.8,67.1c0.1,0,0.2,0.1,0.2,0.2v1.3c0,0.1-0.1,0.2-0.2,0.2H71c-0.1,0-0.2-0.1-0.2-0.2v-9.3
			c0-0.1,0.1-0.2,0.2-0.2h4.6c0.1,0,0.2,0.1,0.2,0.2v1.3c0,0.1-0.1,0.2-0.2,0.2h-2.5c-0.1,0-0.2,0.1-0.2,0.2v1.9
			c0,0.1,0.1,0.2,0.2,0.2h1.6c0.1,0,0.2,0.1,0.2,0.2v1.3c0,0.1-0.1,0.2-0.2,0.2h-1.6c-0.1,0-0.2,0.1-0.2,0.2v1.9
			c0,0.1,0.1,0.2,0.2,0.2L75.8,67.1L75.8,67.1z"/>
		<path class="st1" d="M83.8,69.3c0.1,0,0.2,0.1,0.2,0.2v1.3c0,0.1-0.1,0.2-0.2,0.2H79c-0.1,0-0.2-0.1-0.2-0.2v-9.3
			c0-0.1,0.1-0.2,0.2-0.2h4.6c0.1,0,0.2,0.1,0.2,0.2v1.3c0,0.1-0.1,0.2-0.2,0.2h-2.5c-0.1,0-0.2,0.1-0.2,0.2v1.9
			c0,0.1,0.1,0.2,0.2,0.2h1.6c0.1,0,0.2,0.1,0.2,0.2v1.3c0,0.1-0.1,0.2-0.2,0.2h-1.6c-0.1,0-0.2,0.1-0.2,0.2V69
			c0,0.1,0.1,0.2,0.2,0.2L83.8,69.3L83.8,69.3z"/>
		<path class="st1" d="M87,68.8c-0.1,0-0.2-0.1-0.2-0.2v-9.4c0-0.1,0.1-0.2,0.2-0.2h1.7c0.1,0,0.2,0.1,0.2,0.2l2.5,4.9
			c0.1,0.2,0.2,0.2,0.2,0v-4.9c0-0.1,0.1-0.2,0.2-0.2h1.7c0.1,0,0.2,0.1,0.2,0.2v9.3c0,0.1-0.1,0.2-0.2,0.2h-1.7
			c-0.1,0-0.2-0.1-0.2-0.2l-2.5-4.9c-0.1-0.2-0.2-0.2-0.2,0v4.9c0,0.1-0.1,0.2-0.2,0.2L87,68.8L87,68.8z"/>
	</g>
	<g>
		<path class="st1" d="M29.4,76.4C29.4,76.4,29.5,76.4,29.4,76.4l0.8-2.2c0,0,0-0.1,0.1-0.1h1c0,0,0.1,0,0.1,0.1v3.2
			c0,0,0,0.1-0.1,0.1h-0.6c0,0-0.1,0-0.1-0.1v-1.9c0,0,0,0-0.1,0l-0.7,1.9c0,0,0,0.1-0.1,0.1h-0.7c0,0-0.1,0-0.1-0.1l-0.7-1.9
			c0,0-0.1,0-0.1,0v1.9c0,0,0,0.1-0.1,0.1h-0.6c0,0-0.1,0-0.1-0.1v-3.2c0,0,0-0.1,0.1-0.1h1c0,0,0.1,0,0.1,0.1L29.4,76.4z"/>
		<path class="st1" d="M33.1,77.4C33.1,77.4,33.1,77.4,33.1,77.4l-0.7,0.1c0,0-0.1,0-0.1-0.1v-3.2c0,0,0-0.1,0.1-0.1H33
			c0,0,0.1,0,0.1,0.1V77.4z"/>
		<path class="st1" d="M37.4,74.2v3.2c0,0,0,0.1-0.1,0.1h-0.7c0,0-0.1,0-0.1-0.1L35,75.3c0,0-0.1,0-0.1,0v2c0,0,0,0.1-0.1,0.1h-0.6
			c0,0-0.1,0-0.1-0.1v-3.2c0,0,0-0.1,0.1-0.1H35c0,0,0.1,0,0.1,0.1l1.5,2.1c0,0,0.1,0,0.1,0v-2c0,0,0-0.1,0.1-0.1L37.4,74.2
			C37.4,74.1,37.4,74.1,37.4,74.2z"/>
		<path class="st1" d="M41.4,77.4h-0.6c0,0-0.1,0-0.1-0.1L40.5,77c0,0,0-0.1-0.1-0.1h-1.3c0,0-0.1,0-0.1,0.1l-0.1,0.3
			c0,0,0,0.1-0.1,0.1h-0.6c0,0-0.1,0,0-0.1l1.2-3.2c0,0,0.1-0.1,0.1-0.1h0.7c0,0,0.1,0,0.1,0.1L41.4,77.4
			C41.4,77.4,41.4,77.4,41.4,77.4z M40.3,76.3L39.8,75c0,0-0.1,0-0.1,0l-0.4,1.3c0,0,0,0.1,0,0.1L40.3,76.3
			C40.3,76.3,40.3,76.3,40.3,76.3z"/>
		<path class="st1" d="M44.1,76.4C44.1,76.4,44.1,76.4,44.1,76.4l0.8-2.2c0,0,0-0.1,0.1-0.1h1c0,0,0.1,0,0.1,0.1v3.2
			c0,0,0,0.1-0.1,0.1h-0.6c0,0-0.1,0-0.1-0.1v-1.9c0,0,0,0-0.1,0l-0.7,1.9c0,0,0,0.1-0.1,0.1h-0.7c0,0,0,0-0.1-0.1L43,75.4
			c0,0-0.1,0-0.1,0v1.9c0,0,0,0.1-0.1,0.1h-0.6c0,0-0.1,0-0.1-0.1v-3.2c0,0,0-0.1,0.1-0.1h1c0,0,0.1,0,0.1,0.1L44.1,76.4z"/>
		<path class="st1" d="M47.8,77.4C47.8,77.4,47.8,77.4,47.8,77.4l-0.7,0.1c0,0-0.1,0-0.1-0.1v-3.2c0,0,0-0.1,0.1-0.1h0.6
			c0,0,0.1,0,0.1,0.1V77.4z"/>
		<path class="st1" d="M53.3,77.4h-0.6c0,0-0.1,0-0.1-0.1L52.5,77c0,0,0-0.1-0.1-0.1h-1.3c0,0-0.1,0-0.1,0.1l-0.1,0.3
			c0,0,0,0.1-0.1,0.1h-0.6c0,0-0.1,0,0-0.1l1.2-3.2c0,0,0.1-0.1,0.1-0.1h0.7c0,0,0.1,0,0.1,0.1L53.3,77.4
			C53.4,77.4,53.4,77.4,53.3,77.4z M52.2,76.3L51.8,75c0,0-0.1,0-0.1,0l-0.4,1.3c0,0,0,0.1,0,0.1L52.2,76.3
			C52.2,76.3,52.3,76.3,52.2,76.3z"/>
		<path class="st1" d="M55.5,74.1c1.1,0,1.6,0.7,1.6,1.7c0,1-0.4,1.7-1.6,1.7s-1.6-0.7-1.6-1.7C53.9,74.8,54.3,74.1,55.5,74.1z
			 M54.7,75.8c0,0.7,0.3,1.1,0.8,1.1c0.5,0,0.8-0.4,0.8-1.1s-0.3-1.1-0.8-1.1C54.9,74.7,54.7,75.1,54.7,75.8z"/>
		<path class="st1" d="M58.1,74.1C58.2,74.1,58.2,74.1,58.1,74.1l0.8,1.5c0,0.1,0.1,0.1,0.1,0l0.7-1.4c0,0,0.1-0.1,0.1-0.1h0.6
			c0,0,0.1,0,0,0.1l-1.1,2c0,0,0,0.1,0,0.2v1c0,0,0,0.1-0.1,0.1h-0.6c0,0-0.1,0-0.1-0.1v-1c0-0.1,0-0.1,0-0.2l-1.1-2
			c0,0,0-0.1,0-0.1H58.1z"/>
		<path class="st1" d="M63.8,77.4h-0.6c0,0-0.1,0-0.1-0.1L63,77c0,0,0-0.1-0.1-0.1h-1.3c0,0-0.1,0-0.1,0.1l-0.1,0.3
			c0,0,0,0.1-0.1,0.1h-0.6c0,0-0.1,0,0-0.1l1.2-3.2c0,0,0.1-0.1,0.1-0.1h0.7c0,0,0.1,0,0.1,0.1L63.8,77.4
			C63.9,77.4,63.9,77.4,63.8,77.4z M62.7,76.3L62.3,75c0,0-0.1,0-0.1,0l-0.4,1.3c0,0,0,0.1,0,0.1L62.7,76.3
			C62.7,76.3,62.7,76.3,62.7,76.3z"/>
		<path class="st1" d="M66.5,76.4C66.5,76.4,66.5,76.4,66.5,76.4l0.8-2.2c0,0,0-0.1,0.1-0.1h1c0,0,0.1,0,0.1,0.1v3.2
			c0,0,0,0.1-0.1,0.1h-0.6c0,0-0.1,0-0.1-0.1v-1.9c0,0,0,0-0.1,0L67,77.4c0,0,0,0.1-0.1,0.1h-0.7c0,0,0,0-0.1-0.1l-0.7-1.9
			c0,0-0.1,0-0.1,0v1.9c0,0,0,0.1-0.1,0.1h-0.6c0,0-0.1,0-0.1-0.1v-3.2c0,0,0-0.1,0.1-0.1h1c0,0,0.1,0,0.1,0.1L66.5,76.4z"/>
		<path class="st1" d="M72.4,77.4h-0.6c0,0-0.1,0-0.1-0.1L71.6,77c0,0,0-0.1-0.1-0.1h-1.3c0,0-0.1,0-0.1,0.1L70,77.4
			c0,0,0,0.1-0.1,0.1h-0.6c0,0-0.1,0,0-0.1l1.2-3.2c0,0,0.1-0.1,0.1-0.1h0.7c0,0,0.1,0,0.1,0.1L72.4,77.4
			C72.5,77.4,72.4,77.4,72.4,77.4z M71.3,76.3L70.9,75c0,0-0.1,0-0.1,0l-0.4,1.3c0,0,0,0.1,0,0.1L71.3,76.3
			C71.3,76.3,71.3,76.3,71.3,76.3z"/>
	</g>
</g>
</svg>
